<?xml version="1.0" encoding="UTF-8" standalone="no"?>
<!-- Created with Inkscape (http://www.inkscape.org/) -->

<svg
   width="1175"
   height="165"
   viewBox="0 0 310.88542 43.65625"
   version="1.1"
   id="svg1"
   xmlns="http://www.w3.org/2000/svg"
   xmlns:svg="http://www.w3.org/2000/svg">
  <defs
     id="defs1" />
  <g
     id="g612"
     style="display:inline">
    <g
       id="path610">
      <path
         style="color:#000000;-inkscape-font-specification:'Calibri, Bold Italic';fill:#172e17;fill-opacity:1;stroke-linejoin:round;-inkscape-stroke:none"
         d="m 237.29404,35.710999 h 4.62091 l -1.29966,3.442167 z"
         id="path672" />
      <path
         style="color:#000000;-inkscape-font-specification:'Calibri, Bold Italic';fill:#172e17;fill-opacity:1;stroke-linejoin:round;-inkscape-stroke:none"
         d="m 202.88839,35.710999 h 4.62246 l -1.29966,3.442683 z"
         id="path671" />
      <path
         style="color:#000000;-inkscape-font-specification:'Calibri, Bold Italic';fill:#172e17;fill-opacity:1;stroke-linejoin:round;-inkscape-stroke:none"
         d="m 187.42784,35.710999 h 3.838 l -1.29914,3.442683 -2.75952,-2.859257 z"
         id="path670" />
      <path
         style="color:#000000;-inkscape-font-specification:'Calibri, Bold Italic';fill:#172e17;fill-opacity:1;stroke-linejoin:round;-inkscape-stroke:none"
         d="m 172.52539,35.710999 h 4.62194 l -1.29967,3.442683 z"
         id="path669" />
      <path
         style="color:#000000;-inkscape-font-specification:'Calibri, Bold Italic';fill:#172e17;fill-opacity:1;stroke-linejoin:round;-inkscape-stroke:none"
         d="m 157.07362,35.710999 h 2.78484 l -0.53382,3.153812 -2.47478,-2.564184 z"
         id="path668" />
      <path
         style="color:#000000;-inkscape-font-specification:'Calibri, Bold Italic';fill:#172e17;fill-opacity:1;stroke-linejoin:round;-inkscape-stroke:none"
         d="m 142.16135,35.710999 h 4.62297 l -1.30018,3.443717 z"
         id="path667" />
      <path
         style="color:#000000;-inkscape-font-specification:'Calibri, Bold Italic';fill:#172e17;fill-opacity:1;stroke-linejoin:round;-inkscape-stroke:none"
         d="m 113.85662,35.710999 h 4.62245 l -1.29966,3.443717 z"
         id="path666" />
      <path
         style="color:#000000;-inkscape-font-specification:'Calibri, Bold Italic';fill:#172e17;fill-opacity:1;stroke-linejoin:round;-inkscape-stroke:none"
         d="m 97.788346,35.710999 h 4.620904 l -1.29966,3.442167 z"
         id="path665" />
      <path
         style="color:#000000;-inkscape-font-specification:'Calibri, Bold Italic';fill:#172e17;fill-opacity:1;stroke-linejoin:round;-inkscape-stroke:none"
         d="m 81.718526,35.710999 h 1.777153 l 0.386023,2.241723 z"
         id="path664" />
      <path
         style="color:#000000;-inkscape-font-specification:'Calibri, Bold Italic';fill:#172e17;fill-opacity:1;stroke-linejoin:round;-inkscape-stroke:none"
         d="m 63.782153,35.710999 h 4.622457 l -1.299662,3.443717 z"
         id="path663" />
      <path
         style="color:#000000;-inkscape-font-specification:'Calibri, Bold Italic';fill:#172e17;fill-opacity:1;stroke-linejoin:round;-inkscape-stroke:none"
         d="m 47.713883,35.710999 h 4.620907 l -1.299662,3.442167 z"
         id="path662" />
      <path
         style="color:#000000;-inkscape-font-specification:'Calibri, Bold Italic';fill:#172e17;fill-opacity:1;stroke-linejoin:round;-inkscape-stroke:none"
         d="m 31.644063,35.710999 h 4.622974 l -1.300179,3.442683 z"
         id="path661" />
      <path
         style="color:#000000;-inkscape-font-specification:'Calibri, Bold Italic';fill:#172e17;fill-opacity:1;stroke-linejoin:round;-inkscape-stroke:none"
         d="m 9.6552246,35.710999 h 4.6224564 l -1.299662,3.443717 z"
         id="path660" />
      <path
         style="color:#000000;-inkscape-font-specification:'Calibri, Bold Italic';fill:#172e17;fill-opacity:1;stroke-linejoin:round;-inkscape-stroke:none"
         d="m 134.88117,29.134139 3.32331,3.444234 h -4.62349 z"
         id="path659" />
      <path
         style="color:#000000;-inkscape-font-specification:'Calibri, Bold Italic';fill:#172e17;fill-opacity:1;stroke-linejoin:round;-inkscape-stroke:none"
         d="m 172.15848,26.61853 -1.19372,3.162081 a 1.0001,1.0001 0 0 0 -0.17363,-0.679028 l -1.10381,-1.56838 z"
         id="path658" />
      <path
         style="color:#000000;-inkscape-font-specification:'Calibri, Bold Italic';fill:#172e17;fill-opacity:1;stroke-linejoin:round;-inkscape-stroke:none"
         d="m 223.71296,20.549133 3.32073,3.441134 h -4.62091 z"
         id="path657" />
      <path
         style="color:#000000;-inkscape-font-specification:'Calibri, Bold Italic';fill:#172e17;fill-opacity:1;stroke-linejoin:round;-inkscape-stroke:none"
         d="m 134.88686,19.951237 h 9.42526 l -4.36201,11.555884 -4.72529,-4.897892 -0.0284,0.02739 a 1.0001,1.0001 0 0 0 -0.69247,-0.33383 h -2.01641 z"
         id="path656" />
      <path
         style="color:#000000;-inkscape-font-specification:'Calibri, Bold Italic';fill:#172e17;fill-opacity:1;stroke-linejoin:round;-inkscape-stroke:none"
         d="m 239.5151,13.677718 h 2.29753 l -0.64596,1.711007 z"
         id="path655" />
      <path
         style="color:#000000;-inkscape-font-specification:'Calibri, Bold Italic';fill:#172e17;fill-opacity:1;stroke-linejoin:round;-inkscape-stroke:none"
         d="m 28.275277,8.6671712 1.809708,1.8758548 H 28.74915 Z"
         id="path654" />
      <path
         style="color:#000000;-inkscape-font-specification:'Calibri, Bold Italic';fill:#172e17;fill-opacity:1;stroke-linejoin:round;-inkscape-stroke:none"
         d="m 82.049772,8.3018188 2.162142,2.2412072 h -1.776119 z"
         id="path653" />
      <path
         style="color:#000000;-inkscape-font-specification:'Calibri, Bold Italic';fill:#172e17;fill-opacity:1;stroke-linejoin:round;-inkscape-stroke:none"
         d="m 173.5646,7.1008586 3.32124,3.4421674 h -4.6209 z"
         id="path652" />
      <path
         style="color:#000000;-inkscape-font-specification:'Calibri, Bold Italic';fill:#172e17;fill-opacity:1;stroke-linejoin:round;-inkscape-stroke:none"
         d="m 203.9276,7.1003418 3.32125,3.4426842 h -4.62091 z"
         id="path651" />
      <path
         style="color:#000000;-inkscape-font-specification:'Calibri, Bold Italic';fill:#172e17;fill-opacity:1;stroke-linejoin:round;-inkscape-stroke:none"
         d="m 48.752063,7.1003418 3.322278,3.4426842 h -4.62194 z"
         id="path650" />
      <path
         style="color:#000000;-inkscape-font-specification:'Calibri, Bold Italic';fill:#172e17;fill-opacity:1;stroke-linejoin:round;-inkscape-stroke:none"
         d="m 143.20108,7.099825 3.32279,3.443201 h -4.62349 z"
         id="path649" />
      <path
         style="color:#000000;-inkscape-font-specification:'Calibri, Bold Italic';fill:#172e17;fill-opacity:1;stroke-linejoin:round;-inkscape-stroke:none"
         d="m 64.82085,7.0993083 3.322277,3.4437177 h -4.622456 z"
         id="path648" />
      <path
         style="color:#000000;-inkscape-font-specification:'Calibri, Bold Italic';fill:#172e17;fill-opacity:1;stroke-linejoin:round;-inkscape-stroke:none"
         d="m 260.53759,7.0987915 3.32279,3.4442345 h -4.62297 z"
         id="path647" />
      <path
         style="color:#000000;-inkscape-font-specification:'Calibri, Bold Italic';fill:#172e17;fill-opacity:1;stroke-linejoin:round;-inkscape-stroke:none"
         d="m 232.23285,7.0987915 3.3228,3.4442345 h -4.62298 z"
         id="path646" />
      <path
         style="color:#000000;-inkscape-font-specification:'Calibri, Bold Italic';fill:#172e17;fill-opacity:1;stroke-linejoin:round;-inkscape-stroke:none"
         d="m 114.8948,7.0987915 3.32331,3.4442345 h -4.62349 z"
         id="path645" />
      <path
         style="color:#000000;-inkscape-font-specification:'Calibri, Bold Italic';fill:#172e17;fill-opacity:1;stroke-linejoin:round;-inkscape-stroke:none"
         d="m 98.826526,7.0987915 3.323314,3.4442345 h -4.623493 z"
         id="path644" />
      <path
         style="color:#000000;-inkscape-font-specification:'Calibri, Bold Italic';fill:#172e17;fill-opacity:1;stroke-linejoin:round;-inkscape-stroke:none"
         d="M 18.417997,4.2695068 A 1.0001,1.0001 0 0 0 17.482654,4.915979 L 6.3670532,34.359143 a 1.0001,1.0001 0 0 0 0.2640666,0.999422 l -0.049093,0.04754 6.0528612,6.273518 0.04754,-0.04599 a 1.0001,1.0001 0 0 0 0.672827,0.35295 h 7.966956 a 1.0001,1.0001 0 0 0 0.935343,-0.648539 l 4.169255,-11.038602 2.303735,2.387967 0.118339,-0.114204 a 1.0001,1.0001 0 0 0 0.143144,0.09974 l -0.636654,1.686202 a 1.0001,1.0001 0 0 0 0.264067,0.999422 l -0.04909,0.04754 6.054411,6.273518 0.04702,-0.04547 a 1.0001,1.0001 0 0 0 0.671794,0.352433 h 7.969023 a 1.0001,1.0001 0 0 0 0.935343,-0.648539 l 1.720309,-4.556311 4.725293,4.897892 0.04702,-0.04547 a 1.0001,1.0001 0 0 0 0.671794,0.352433 h 7.968506 a 1.0001,1.0001 0 0 0 0.935343,-0.648539 l 1.720308,-4.556311 4.725293,4.897892 0.04909,-0.04754 a 1.0001,1.0001 0 0 0 0.671277,0.352433 l 7.966955,0.0021 a 1.0001,1.0001 0 0 0 0.935861,-0.648539 l 2.331123,-6.173266 a 1.0001,1.0001 0 0 0 0.09508,0.0801 l -0.166915,0.161231 6.054928,6.273518 0.165881,-0.160196 a 1.0001,1.0001 0 0 0 0.552938,0.467154 h 7.968506 a 1.0001,1.0001 0 0 0 0.93586,-0.648539 l 1.719792,-4.555794 4.725287,4.897375 0.047,-0.04547 a 1.0001,1.0001 0 0 0 0.67179,0.352433 h 7.96902 a 1.0001,1.0001 0 0 0 0.93535,-0.648539 l 1.72031,-4.555794 4.72477,4.897375 0.0475,-0.04599 a 1.0001,1.0001 0 0 0 0.67335,0.35295 h 20.2029 a 1.0001,1.0001 0 0 0 0.93586,-0.648539 l 1.71979,-4.555794 4.72529,4.897375 0.0476,-0.04599 a 1.0001,1.0001 0 0 0 0.67334,0.35295 h 8.14266 a 1.0001,1.0001 0 0 0 0.93534,-0.646988 l 1.12655,-2.971395 3.19567,3.311425 0.0186,-0.01809 a 1.0001,1.0001 0 0 0 0.70022,0.325044 h 8.14265 a 1.0001,1.0001 0 0 0 0.98805,-0.840258 l 0.85215,-5.209501 5.54281,5.742801 0.047,-0.04496 a 1.0001,1.0001 0 0 0 0.67128,0.351916 h 8.14265 a 1.0001,1.0001 0 0 0 0.93586,-0.648539 l 1.12293,-2.973978 3.19929,3.315559 0.047,-0.04547 a 1.0001,1.0001 0 0 0 0.6718,0.352433 h 8.14214 a 1.0001,1.0001 0 0 0 0.93586,-0.648539 l 1.7203,-4.556311 4.72685,4.897892 0.047,-0.04547 a 1.0001,1.0001 0 0 0 0.6718,0.352433 h 8.32042 a 1.0001,1.0001 0 0 0 0.93534,-0.648539 l 3.70107,-9.805086 h 7.75043 a 1.0001,1.0001 0 0 0 0.93534,-0.646472 l 2.09393,-5.542814 a 1.0001,1.0001 0 0 0 -0.24443,-1.021643 l 0.0274,-0.02687 -4.19096,-4.343921 h 9.19479 a 1.0001,1.0001 0 0 0 0.93586,-0.646472 l 1.72031,-4.557345 2.61741,2.711463 -6.38101,16.90026 a 1.0001,1.0001 0 0 0 0.26562,1.000456 l -0.0486,0.04651 6.05234,6.273518 0.047,-0.04547 a 1.0001,1.0001 0 0 0 0.6718,0.352433 h 8.00623 a 1.0001,1.0001 0 0 0 0.93534,-0.648539 l 8.07599,-21.386808 h 5.40846 a 1.0001,1.0001 0 0 0 0.93534,-0.646472 l 2.79725,-7.408334 a 1.0001,1.0001 0 0 0 -0.24495,-1.022159 l 0.0279,-0.02687 -6.05286,-6.2730022 -0.0289,0.027905 a 1.0001,1.0001 0 0 0 -0.69143,-0.3327963 h -20.20342 a 1.0001,1.0001 0 0 0 -0.93534,0.6464722 l -1.7198,4.5557943 -4.72581,-4.8973755 -0.0289,0.027905 a 1.0001,1.0001 0 0 0 -0.69143,-0.3327963 h -20.20497 a 1.0001,1.0001 0 0 0 -0.93586,0.6464722 l -1.71979,4.5557943 -4.7253,-4.8973755 -0.0279,0.026872 a 1.0001,1.0001 0 0 0 -0.69092,-0.3317627 h -22.26375 a 1.0001,1.0001 0 0 0 -0.93535,0.6464722 l -1.71979,4.5557943 -4.72581,-4.8973755 -0.0279,0.026872 A 1.0001,1.0001 0 0 0 173.18736,4.2695068 H 150.9236 a 1.0001,1.0001 0 0 0 -0.93534,0.6464722 l -1.71979,4.5557943 -4.72529,-4.8973755 -0.0279,0.026872 A 1.0001,1.0001 0 0 0 142.82437,4.2695071 H 122.6194 a 1.0001,1.0001 0 0 0 -0.93586,0.6464722 l -1.72031,4.5557943 -4.72478,-4.8973755 -0.0294,0.028422 a 1.0001,1.0001 0 0 0 -0.69143,-0.333313 h -7.96696 a 1.0001,1.0001 0 0 0 -0.93534,0.6464722 l -1.72031,4.5557943 -4.726843,-4.8973755 -0.02791,0.026872 A 1.0001,1.0001 0 0 0 98.449288,4.2695068 H 90.482332 A 1.0001,1.0001 0 0 0 89.546989,4.915979 l -2.331641,6.1743 a 1.0001,1.0001 0 0 0 -0.09715,-0.08165 L 87.285111,10.8474 81.232251,4.5743978 81.065336,4.7356283 A 1.0001,1.0001 0 0 0 80.511882,4.2695068 H 72.544926 A 1.0001,1.0001 0 0 0 71.609583,4.915979 l -1.720309,4.5557943 -4.725293,-4.8973755 -0.02894,0.027905 a 1.0001,1.0001 0 0 0 -0.69143,-0.3327963 h -7.966956 a 1.0001,1.0001 0 0 0 -0.93586,0.6464722 l -1.720309,4.5557943 -4.726843,-4.8973755 -0.0279,0.026872 A 1.0001,1.0001 0 0 0 48.374825,4.2695068 h -7.968506 a 1.0001,1.0001 0 0 0 -0.734322,0.3203939 l -6.250264,6.7592773 -0.01344,-0.05219 A 1.0001,1.0001 0 0 0 33.011938,10.988477 L 33.158183,10.8474 27.105322,4.5743978 26.959078,4.7154744 A 1.0001,1.0001 0 0 0 26.386503,4.2695068 Z"
         id="path613" />
    </g>
    <g
       id="rect672-2-7"
       transform="translate(-0.92604166,-0.59656788)">
      <path
         style="color:#000000;fill:#172e17;stroke-linejoin:round;-inkscape-stroke:none"
         d="m 282.61789,34.71106 h 0.47594 v 0.544669 z"
         id="path714" />
      <path
         style="color:#000000;fill:#172e17;stroke-linejoin:round;-inkscape-stroke:none"
         d="m 274.20549,26.298653 h 0.47438 v 0.542603 z"
         id="path713" />
      <path
         style="color:#000000;fill:#172e17;stroke-linejoin:round;-inkscape-stroke:none"
         d="m 297.18341,20.607528 0.47491,0.543119 h -0.47491 z"
         id="path712" />
      <path
         style="color:#000000;fill:#172e17;stroke-linejoin:round;-inkscape-stroke:none"
         d="m 288.76945,12.193571 0.47594,0.54467 h -0.47594 z"
         id="path711" />
      <path
         style="color:#000000;fill:#172e17;stroke-linejoin:round;-inkscape-stroke:none"
         d="m 280.41596,8.5312622 a 1.0001,1.0001 0 0 0 -0.99994,0.999939 V 16.943152 H 272.002 a 1.0001,1.0001 0 0 0 -0.99994,1.000456 v 7.355106 a 1.0001,1.0001 0 0 0 0.2713,0.637687 l -0.0233,0.02067 3.67781,4.206978 0.0233,-0.02067 a 1.0001,1.0001 0 0 0 0.72863,0.362252 h 3.73621 v 3.205489 a 1.0001,1.0001 0 0 0 0.27182,0.63717 l -0.0238,0.02067 3.67574,4.206978 0.0243,-0.02119 a 1.0001,1.0001 0 0 0 0.72967,0.363285 h 7.35356 a 1.0001,1.0001 0 0 0 0.99994,-0.999939 v -7.412467 h 7.41401 a 1.0001,1.0001 0 0 0 0.99994,-0.999939 v -7.355107 a 1.0001,1.0001 0 0 0 -0.2713,-0.637687 l 0.0233,-0.02067 -3.67782,-4.206978 -0.0233,0.02067 a 1.0001,1.0001 0 0 0 -0.72864,-0.362768 h -3.7362 V 13.73818 a 1.0001,1.0001 0 0 0 -0.27079,-0.636654 l 0.0248,-0.0217 -3.67782,-4.2069786 -0.0248,0.021704 a 1.0001,1.0001 0 0 0 -0.72916,-0.3632853 z"
         id="path699" />
    </g>
  </g>
  <g
     id="layer1"
     style="display:inline">
    <path
       id="rect672-2"
       style="display:inline;fill:#172e17;fill-opacity:1;stroke:#172e17;stroke-width:2;stroke-linejoin:round;stroke-opacity:1"
       d="m 298.93447,21.55413 v 7.354491 h -8.41295 l 2e-5,8.412949 h -7.3545 v -8.41295 h -8.41294 v -7.35449 h 8.41294 v -8.41295 h 7.35448 v 8.41295 z" />
    <path
       d="m 298.93496,21.554132 -3.678,-4.2065 m 3.678,11.561 -3.678,-4.2065 m -4.735,4.2065 -3.678,-4.2065 m 3.678,12.6194 -3.678,-4.2064 m -3.677,4.2064 -3.677,-4.2064 m 3.677,-4.2065 -3.677,-4.2065 m -4.736,4.2065 -3.677,-4.2065 m 3.677,-3.148 -3.677,-4.2065 m 12.09,4.2065 -3.677,-4.2065 m 3.677,-4.2065 -3.677,-4.2064299 m 11.032,4.2064299 -3.678,-4.2064299 m 3.678,12.6194299 -3.678,-4.2065"
       style="fill:none;stroke:#172e17;stroke-width:2;stroke-dasharray:none;stroke-opacity:1"
       id="path682" />
    <path
       d="m 43.311697,40.985371 -7.96773,3.2e-5 5.808429,-15.384163 -5.979813,6.392876 H 29.450704 L 27.131274,25.60124 21.32286,40.985403 H 13.355139 L 24.471517,11.542546 h 7.96772 l 2.510094,9.944704 h 2.315559 l 9.195469,-9.944704 h 7.967718 z m 16.068786,0 h -7.967718 l 11.11638,-29.442825 h 7.967717 z m 34.005674,0 h -7.96772 l -3.122475,-18.134181 -6.846705,18.134181 -7.967706,-2.4e-5 11.11637,-29.442801 h 7.967716 l 3.12248,18.134181 6.846703,-18.134181 h 7.96771 z m 16.068763,0 h -7.9677 l 11.11637,-29.442825 h 7.96771 z M 146.07967,18.95072 h -11.88496 l -5.52235,14.626477 h 11.88497 l -2.79702,7.408174 h -20.20433 l 11.11638,-29.442825 h 20.20433 z m 28.1624,5.829512 -6.11839,2.266998 1.84982,2.629497 -1.84982,11.308644 h -8.14291 l 1.7095,-10.107807 -2.84573,-2.658352 -4.84026,12.766159 h -8.14291 l 11.11638,-29.442825 h 22.26231 z m -11.66312,-6.505724 -1.1927,3.212742 6.73743,-1.809225 0.43176,-1.403517 z m 35.9081,22.710863 h -8.14291 l 4.0525,-10.733431 h -5.97649 l -4.0525,10.733431 h -8.14291 l 11.11638,-29.442825 h 22.26231 z m 0.43176,-22.710863 h -5.97649 l -1.21299,3.212742 h 5.97649 z m 36.193,0.676212 h -11.88497 l -2.28014,6.039155 h 8.44162 l -2.09295,5.543379 h -8.44162 l -3.94628,10.452117 h -8.31936 l 11.11638,-29.442825 h 20.20433 z m 28.30539,0 h -6.09965 l -8.31936,22.034651 h -8.00504 l 8.31936,-22.034651 h -6.09964 l 2.79701,-7.408174 h 20.20433 z"
       id="path570"
       style="font-style:italic;font-weight:bold;font-size:46.9292px;font-family:Calibri;-inkscape-font-specification:'Calibri, Bold Italic';letter-spacing:2.40385px;fill:#172e17;fill-opacity:1;stroke:#172e17;stroke-width:2;stroke-linecap:butt;stroke-linejoin:round;stroke-dasharray:none;stroke-opacity:1;paint-order:normal"
       aria-label="MINICRAFT" />
    <path
       d="m 43.3117,40.9854 -6.0533,-6.2737 m -1.9144,6.2737 -6.0533,-6.2737 m 11.8617,-9.1105 -6.0533,-6.2737 m 0.0735,12.6666 -6.0533,-6.2737 m 0.3314,6.2737 -6.0533,-6.2737 m 3.7339,-0.1192 -6.0533,-6.2737 m 0.2449,21.6579 -6.0533,-6.2737 M 13.3551,40.9854 7.30183,34.7117 M 24.4715,11.5425 18.4182,5.26884 M 32.4392,11.5425 26.3859,5.26884 M 34.9493,21.4872 28.896,15.2135 m 8.3689,6.2737 -6.0533,-6.2737 M 46.4604,11.5425 40.407,5.26884 M 54.4281,11.5425 48.3748,5.26884 M 59.3805,40.9854 53.3272,34.7117 m -1.9144,6.2737 -6.0533,-6.2737 M 62.5291,11.5425 56.4758,5.26884 M 70.4969,11.5425 64.4436,5.26884 M 93.3862,40.9854 87.3328,34.7117 m -1.9144,6.2737 -6.0533,-6.2737 M 82.296,22.8512 76.2427,16.5775 m -0.7934,24.4079 -6.0534,-6.2737 m -1.9143,6.2736 -6.0534,-6.2737 M 78.5979,11.5425 72.5446,5.26884 M 86.5656,11.5425 80.5123,5.26884 M 89.6881,29.6767 83.6348,23.403 m 12.9,-11.8605 -6.0533,-6.27366 M 104.503,11.5425 98.4492,5.26884 m 11.0058,35.71656 -6.053,-6.2737 m -1.915,6.2737 -6.0531,-6.2737 M 112.604,11.5425 106.55,5.26884 m 14.021,6.27366 -6.053,-6.27366 M 146.08,18.9507 140.026,12.677 m -5.831,6.2737 -6.054,-6.2737 m 0.531,20.9002 -6.053,-6.2737 m 17.938,6.2737 -6.053,-6.2737 m 3.256,13.6819 -6.053,-6.2737 m -14.151,6.2737 -6.053,-6.2737 m 17.169,-23.1692 -6.053,-6.27366 m 26.258,6.27366 -6.054,-6.27366 m 31.419,19.51136 -6.053,-6.2737 m -0.065,8.5407 -6.054,-6.2737 m 7.903,8.9032 -6.053,-6.2737 m 4.204,17.5824 -6.054,-6.2737 m -2.089,6.2737 -6.054,-6.2737 m 7.763,-3.8341 -6.053,-6.2737 m 3.208,3.6153 -6.054,-6.2737 m 1.213,19.0399 -6.053,-6.2737 m -2.09,6.2737 -6.053,-6.2737 m 17.17,-23.1692 -6.054,-6.27366 m 28.316,6.27366 -6.053,-6.27366 m -10.608,13.00566 -6.053,-6.2737 m 4.86,9.4864 -6.053,-6.2737 m 12.791,4.4645 -6.054,-6.2737 m 6.485,4.8702 -6.053,-6.2737 m 35.985,28.9846 -6.053,-6.2737 m -2.09,6.2737 -6.053,-6.2737 m 10.106,-4.4598 -6.054,-6.2737 m 0.077,6.2737 -6.053,-6.2737 m 2.001,17.0072 -6.054,-6.2737 m -2.089,6.2737 -6.054,-6.2737 m 17.17,-23.1692 -6.053,-6.27366 m 28.315,6.27366 -6.053,-6.27366 m -4.631,13.00566 -6.053,-6.2737 m 0.076,6.2737 -6.053,-6.2737 m 4.84,9.4864 -6.053,-6.2737 m 12.03,6.2737 -6.053,-6.2737 m 43.459,3.7372 -6.053,-6.2737 m -5.832,6.2737 -6.053,-6.2737 m 3.773,12.3129 -6.054,-6.2737 m 14.495,6.2737 -6.053,-6.2737 m 3.96,11.8171 -6.053,-6.2738 m -2.388,6.2738 -6.054,-6.2738 m 2.107,16.7259 -6.053,-6.2737 m -2.266,6.2737 -6.053,-6.2737 m 17.169,-23.1692 -6.053,-6.27366 m 26.258,6.27366 -6.053,-6.27366 m 31.561,13.68186 -6.053,-6.2737 m -0.046,6.2737 -6.054,-6.2737 m -2.266,28.3084 -6.053,-6.2737 m -1.952,6.2737 -6.053,-6.2737 m 14.373,-15.761 -6.054,-6.2737 m -0.046,6.2737 -6.053,-6.2737 m 8.85,-1.1345 -6.053,-6.27366 m 26.257,6.27366 -6.053,-6.27366"
       style="fill:none;stroke:#172e17;stroke-width:2;stroke-dasharray:none;stroke-opacity:1"
       id="path609" />
    <path
       d="m 37.258388,34.711663 -7.96773,3.2e-5 5.808429,-15.384163 -5.979813,6.392876 h -5.721879 l -2.31943,-6.392876 -5.808414,15.384163 H 7.3018305 L 18.418208,5.2688379 l 7.96772,10e-8 2.510094,9.944704 h 2.315559 L 40.40705,5.268838 h 7.967718 z m 16.068786,0 H 45.359456 L 56.475836,5.268838 h 7.967717 z m 34.005672,0 H 79.36513 l -3.122477,-18.134181 -6.846705,18.134181 -7.967706,-2.4e-5 11.11637,-29.442801 h 7.967716 L 83.634804,23.403019 90.48151,5.268838 h 7.967716 z m 16.068774,0 H 95.433906 L 106.55029,5.268838 h 7.96771 z m 36.62475,-22.034651 h -11.88496 l -5.52235,14.626477 h 11.88497 l -2.79702,7.408174 H 111.50268 L 122.61906,5.268838 h 20.20433 z m 28.1624,5.829512 -6.11839,2.266998 1.84982,2.629497 -1.84982,11.308644 h -8.14291 l 1.7095,-10.107807 -2.84573,-2.658352 -4.84026,12.766159 h -8.14291 L 150.92445,5.268838 h 22.26231 z m -11.66312,-6.505724 -1.1927,3.212742 6.73743,-1.809225 0.43176,-1.403517 z m 35.9081,22.710863 h -8.14291 l 4.0525,-10.733431 h -5.97649 l -4.0525,10.733431 h -8.14291 L 181.28782,5.268838 h 22.26231 z M 192.86551,12.0008 h -5.97649 l -1.21299,3.212742 h 5.97649 z m 36.193,0.676212 h -11.88497 l -2.28014,6.039155 h 8.44162 l -2.09295,5.543379 h -8.44162 l -3.94628,10.452117 h -8.31936 L 211.65119,5.268838 h 20.20433 z m 28.30539,0 h -6.09965 l -8.31936,22.034651 h -8.00504 l 8.31936,-22.034651 h -6.09964 l 2.79701,-7.408174 h 20.20433 z"
       id="text1"
       style="font-style:italic;font-weight:bold;font-size:46.9292px;font-family:Calibri;-inkscape-font-specification:'Calibri, Bold Italic';letter-spacing:2.40385px;fill:#e5e589;fill-opacity:1;stroke:#538153;stroke-width:2;stroke-linecap:butt;stroke-linejoin:round;stroke-dasharray:none;stroke-opacity:1;paint-order:normal"
       aria-label="MINICRAFT" />
    <path
       id="rect672"
       style="fill:#e5e589;stroke:#538153;stroke-width:2;stroke-linejoin:round"
       d="m 295.25722,17.347654 v 7.354491 h -8.41295 l 2e-5,8.41295 h -7.3545 v -8.41295 h -8.41294 v -7.354491 h 8.41294 v -8.41295 h 7.35448 v 8.41295 z" />
  </g>
</svg>
